<svg xmlns="http://www.w3.org/2000/svg"  viewBox="0 0 72 72" width="64px" height="64px"><path d="M 17 16 C 13.691 16 11 18.691 11 22 L 11 46 C 11 49.309 13.691 52 17 52 L 55 52 C 58.309 52 61 49.309 61 46 L 61 22 C 61 18.691 58.309 16 55 16 L 17 16 z M 36.017578 25.166016 C 37.529578 25.166016 38.384766 26.032922 38.384766 27.544922 C 38.384766 27.713922 38.115234 34.822266 38.115234 34.822266 C 38.068234 36.228266 37.376859 37.025391 36.005859 37.025391 C 34.622859 37.025391 33.942484 36.229266 33.896484 34.822266 C 33.896484 34.822266 33.626953 27.700922 33.626953 27.544922 C 33.626953 26.032922 34.505578 25.166016 36.017578 25.166016 z M 36.005859 38.162109 C 37.364859 38.162109 38.490234 39.193141 38.490234 40.494141 C 38.490234 41.807141 37.364859 42.837891 36.005859 42.837891 C 34.622859 42.837891 33.509766 41.807141 33.509766 40.494141 C 33.509766 39.193141 34.622859 38.162109 36.005859 38.162109 z M 29 55 L 29 57 C 27.343 57 26 58.343 26 60 C 26 61.657 27.343 63 29 63 L 43 63 C 44.657 63 46 61.657 46 60 C 46 58.343 44.657 57 43 57 L 43 55 L 29 55 z"/></svg>